<svg width="250" height="261.35625" viewBox="0 0 174 198.28540981596484" xmlns="http://www.w3.org/2000/svg">
    <g transform="matrix(0.23571427256058747,0,0,0.23571427256058747,-7.091879339923684,0.08652518100354138)"
       fill="#111111">
        <g transform="scale(6.666666666666667) translate(10, 10)">
            <g transform="matrix(1.3198914809088507,0,0,1.3198914809088507,159.6645206398882,47.0962386790632)">
                <polygon
                        points="-38.1,52.3 -46.1,52.3 -46.1,5.2 -83.3,-32 -120.5,5.2 -120.5,32 -63.3,32 -63.3,40 -128.5,40 -128.5,1.9 -83.3,-43.3 -38.1,1.9"/>
                <polygon
                        points="-50.9,52.3 -128.5,52.3 -128.5,44.3 -58.9,44.3 -58.9,10.2 -83.3,-14.2 -107.7,10.2 -107.7,27.6 -115.7,27.6 -115.7,6.9 -83.3,-25.5 -50.9,6.9"/>
            </g>
        </g>
    </g>
</svg>