<svg xmlns="http://www.w3.org/2000/svg" width="210" height="204" viewBox="0 0 210 204" version="1.1">
    <path d="M 112.667 4.368 C 103.422 6.979, 99.601 11.557, 100.387 19.081 L 100.866 23.661 92.683 24.921 C 62.883 29.506, 37.521 44.411, 21.634 66.674 C 17.030 73.125, 10.492 86.948, 8.932 93.530 C 8.283 96.263, 7.359 99.534, 6.877 100.797 C 5.719 103.830, 5.749 123.515, 6.916 127.429 C 14.066 151.395, 18.844 159.948, 32.121 172.557 C 45.045 184.830, 58.740 191.924, 81.500 198.135 C 88.400 200.018, 122.600 200.018, 129.500 198.135 C 152.382 191.891, 167.606 183.997, 180.834 171.517 C 189.803 163.057, 196.381 153.417, 199.524 144.128 C 201.917 137.055, 202.852 128, 201.190 128 C 200.744 128, 199.354 131.037, 198.101 134.750 C 190.188 158.183, 172.748 176.511, 149 186.347 C 141.770 189.342, 140.718 189.721, 136.392 190.887 C 120.987 195.041, 106.114 195.912, 91.500 193.517 C 54.226 187.406, 26.584 165.109, 15.856 132.500 C 13.895 126.538, 13.561 123.498, 13.610 112 C 13.675 96.368, 14.948 90.632, 21.076 78.359 C 32.341 55.799, 54.528 38.884, 82.500 31.530 C 85.800 30.663, 93.988 29.671, 100.696 29.327 C 120.831 28.294, 136.980 31.440, 153.081 39.534 C 163.095 44.568, 167.820 47.932, 175.351 55.389 C 191.570 71.449, 199.219 89.184, 200.620 113.972 C 201.334 126.592, 202.060 127.729, 204.653 120.282 C 206.188 115.874, 206.393 107.287, 205.087 102.116 C 204.584 100.127, 203.623 96.025, 202.949 93 C 198.064 71.047, 180.705 49.314, 158 36.724 C 150.285 32.445, 135.193 27.232, 126.628 25.887 C 117.709 24.486, 117 24.158, 117 21.439 C 117 19.714, 118.228 18.161, 121.250 16.064 C 123.588 14.442, 126.785 12.116, 128.355 10.895 C 130.956 8.871, 131.534 8.788, 134.855 9.954 C 136.860 10.658, 139.738 12.391, 141.250 13.804 C 143.582 15.984, 144 17.181, 144 21.687 C 144 28.163, 146.270 28.990, 148.619 23.370 C 151.241 17.093, 147.523 10.871, 138.514 6.463 C 132.109 3.329, 119.860 2.336, 112.667 4.368 M 93 42.660 C 67.521 46.608, 44.250 62.975, 33.444 84.548 C 28.876 93.668, 27.080 101.419, 27.036 112.201 C 26.981 125.569, 30.152 135.715, 38.096 147.584 C 59.295 179.259, 108.763 191.209, 144.478 173.282 C 165.829 162.565, 181.614 141.657, 183.436 121.681 C 183.728 118.481, 184.208 115.473, 184.502 114.996 C 185.251 113.785, 183.142 100.423, 181.346 95 C 173.294 70.689, 151.464 52.277, 123.791 46.456 C 120.013 45.661, 115.612 44.334, 114.011 43.506 C 111.258 42.082, 99.724 41.618, 93 42.660 M 91.500 50.061 C 82.989 51.786, 81.253 52.356, 73.500 55.967 C 58.609 62.902, 45.499 75.479, 39.510 88.573 C 38.185 91.469, 36.966 95.112, 36.801 96.669 C 36.506 99.442, 36.623 99.512, 42.500 100.076 C 48.774 100.678, 52 101.671, 52 103 C 52 104.574, 48.473 105.069, 41.889 104.420 L 35.159 103.757 34.465 108.385 C 31.853 125.801, 41.775 147.773, 58.244 161.040 C 67.152 168.216, 84.133 175.911, 91.205 175.975 C 93.567 175.997, 93.982 175.525, 94.487 172.250 C 95.443 166.040, 96.469 163.500, 98.024 163.500 C 99.185 163.500, 99.500 164.995, 99.500 170.500 L 99.500 177.500 104.500 177.831 C 110.192 178.207, 121.885 176.581, 130 174.283 C 148.542 169.035, 165.196 155.618, 172.814 139.790 C 177.132 130.821, 179.451 123.539, 178.487 121.979 C 178.154 121.441, 175.905 121, 173.488 121 C 168.548 121, 163.753 119.208, 164.328 117.578 C 164.566 116.905, 167.498 116.600, 172.138 116.767 L 179.567 117.034 179.220 109.767 C 178.853 102.092, 176.252 92.289, 173.086 86.653 C 172.042 84.795, 170.583 82.200, 169.844 80.887 C 163.303 69.270, 146.499 56.953, 130.516 52.059 C 123.928 50.042, 123.460 50.019, 122.266 51.651 C 121.570 52.603, 121 54.661, 121 56.223 C 121 57.786, 120.313 60.709, 119.473 62.719 C 118.053 66.118, 117.830 66.258, 116.293 64.722 C 114.857 63.285, 114.795 62.401, 115.820 57.958 C 117.993 48.544, 118.469 48.983, 106.250 49.125 C 100.338 49.194, 93.700 49.615, 91.500 50.061 M 111.110 88.489 C 109.950 90.958, 109 93.652, 109 94.475 C 109 95.298, 108.443 98.055, 107.762 100.601 C 106.864 103.958, 105.855 105.485, 104.093 106.155 C 98.455 108.298, 97.483 113.637, 101.923 118.077 C 104.887 121.041, 109.060 121.881, 111.896 120.085 C 112.818 119.502, 115.876 120.302, 120.896 122.442 C 129.973 126.310, 133.685 127.318, 134.428 126.117 C 135.288 124.726, 132.393 122.758, 124.647 119.470 C 118.457 116.842, 117.438 116.046, 116.969 113.470 C 116.516 110.974, 115.996 110.530, 113.715 110.688 C 112.222 110.792, 111 110.454, 111 109.938 C 111 109.422, 111.499 109, 112.108 109 C 112.792 109, 112.976 108.040, 112.588 106.494 C 112.242 105.116, 112.643 101.038, 113.479 97.432 C 115.176 90.118, 115.463 84, 114.110 84 C 113.621 84, 112.271 86.020, 111.110 88.489"
          stroke="none" fill="#000" fill-rule="evenodd"/>
</svg>