<?xml version="1.0" encoding="UTF-8"?>
<svg width="308px" height="77px" viewBox="0 0 308 77" version="1.1" xmlns="http://www.w3.org/2000/svg" xmlns:xlink="http://www.w3.org/1999/xlink">
    <g id="Page-1" stroke="none" stroke-width="1" fill="none" fill-rule="evenodd">
        <g id="Group-2" fill="#000000">
            <g id="Group-3">
                <path d="M47.3002889,25.9558364 C44.5278969,21.4080387 39.7256679,18.375 34.0796147,18.375 C25.1393302,18.375 17.8917977,25.818266 17.8917977,35 C17.8917977,44.181734 25.1393302,51.625 34.0796147,51.625 C37.2662614,51.625 41.3042298,51.625 46.1935199,51.625 L57.7440036,70 C47.3091476,70 39.4210181,70 34.0796147,70 C15.2579632,70 0,54.329966 0,35 C0,15.6700338 15.2579632,0 34.0796147,0 C52.901266,0 61.312355,11.7783203 72.9613264,31.7884766 C72.9613264,31.7884766 81.0716536,44.525651 97.2923077,70 L74.5055592,70 L47.2901249,25.9129883 L47.3002889,25.9558364 Z" id="Combined-Shape" fill-rule="nonzero"></path>
                <polygon id="Rectangle" points="69.0461538 -2.00360561e-15 93.329566 -2.91433544e-15 136 70 113.286071 70"></polygon>
            </g>
            <g id="LOSKAN" transform="translate(147, 0)" fill-rule="nonzero">
                <polygon id="Path" points="0 33.6201117 18.2443802 33.6201117 18.2443802 28.396648 5.84934328 28.396648 5.84934328 0.379888268 0 0.379888268"></polygon>
                <path d="M33.6948322,34 C41.4475332,34 45.2078253,29.3463687 45.2078253,22.2234637 L45.2078253,11.8240223 C45.2078253,4.70111732 41.4475332,0 33.6948322,0 C25.9421312,0 22.1354157,4.70111732 22.1354157,11.8240223 L22.1354157,22.2234637 C22.1354157,29.3463687 25.9421312,34 33.6948322,34 Z M33.6948322,28.5391061 C29.5167298,28.5391061 27.984759,26.1648045 27.984759,21.7011173 L27.984759,12.2988827 C27.984759,7.88268156 29.5167298,5.46089385 33.6948322,5.46089385 C37.9193579,5.46089385 39.358482,7.88268156 39.358482,12.2988827 L39.358482,21.7011173 C39.358482,26.1648045 37.9193579,28.5391061 33.6948322,28.5391061 Z" id="Shape"></path>
                <path d="M60.1940436,34 C66.4611972,34 71.0106864,30.4860335 71.0106864,24.075419 C71.0106864,11.8715084 55.6909778,15.575419 55.6909778,9.2122905 C55.6909778,7.12290503 56.6658683,5.31843575 60.1011969,5.31843575 C61.7724379,5.31843575 64.2072488,5.31843575 67.4056298,5.31843575 L69.9831689,0 C66.1496402,0 62.9330218,0 60.3333137,0 C54.298277,0 49.9809046,3.08659218 49.9809046,9.40223464 C49.9809046,21.0837989 65.2541898,16.4776536 65.2541898,24.4078212 C65.2541898,26.6396648 63.7686423,28.6815642 59.72981,28.6815642 C57.9038246,28.6815642 55.1602398,28.6815642 51.4990556,28.6815642 L48.5513536,34 C52.9087673,34 56.789664,34 60.1940436,34 Z" id="Path"></path>
                <polygon id="Path" points="78.2906271 33.6201117 84.1399703 33.6201117 84.1399703 19.1843575 86.6932551 19.1843575 94.306686 33.6201117 100.898803 33.6201117 91.4284378 16.0977654 100.527416 0.379888268 94.0281459 0.379888268 86.5075617 13.9134078 84.1399703 13.9134078 84.1399703 0.379888268 78.2906271 0.379888268"></polygon>
                <path d="M123.080642,26.2597765 L125.308963,33.6201117 L131.251153,33.6201117 L120.759474,0.379888268 L115.281518,0.379888268 L104.789839,33.6201117 L110.685605,33.6201117 L112.96035,26.2597765 L123.080642,26.2597765 Z M114.306627,20.9888268 L117.927649,8.7849162 L118.113343,8.7849162 L121.734365,20.9888268 L114.306627,20.9888268 Z" id="Shape"></path>
                <polygon id="Path" points="137.23124 33.6201117 142.75562 33.6201117 142.75562 11.7290503 142.941313 11.7290503 155.89343 33.6201117 161 33.6201117 161 0.379888268 155.47562 0.379888268 155.47562 22.2709497 155.289927 22.2709497 142.244963 0.379888268 137.23124 0.379888268"></polygon>
            </g>
            <g id="Consulting" transform="translate(146, 43)" fill-rule="nonzero">
                <path d="M7.59168165,24.8618658 C3.35128289,24.8618658 1.74403497,22.2273666 1.74403497,18.0472947 L1.74403497,9.93303742 C1.74403497,5.71783883 3.28288936,3.11846637 7.52328812,3.11846637 C10.156439,3.11846637 11.5585063,4.31277263 12.9605736,6.84189179 L14.362641,6.03397873 C13.336738,3.99663274 11.5585063,1.39726027 7.52328812,1.39726027 C2.25698644,1.39726027 0,4.69916584 0,9.65202418 L0,18.2931813 C0,23.2811663 2.32537996,26.5479452 7.59168165,26.5479452 C11.6268998,26.5479452 13.3709348,23.9485727 14.4310345,21.9112268 L12.9947704,21.1384403 C11.6268998,23.6675595 10.2248325,24.8618658 7.59168165,24.8618658 Z" id="Path"></path>
                <path d="M26.0860711,25.415768 C22.4254684,25.415768 21.2280749,23.1786651 21.2280749,19.4146507 L21.2280749,15.4375789 C21.2280749,11.0699019 22.1517784,8.584232 26.0860711,8.584232 C29.7466739,8.584232 30.9440673,10.8213349 30.9440673,14.6208588 L30.9440673,18.5979306 C30.9440673,22.8945886 29.9861526,25.415768 26.0860711,25.415768 Z M26.0860711,27.0136986 C30.7387999,27.0136986 32.5862069,24.1729331 32.5862069,19.5921986 L32.5862069,14.443311 C32.5862069,9.82706694 30.7387999,6.98630137 26.0860711,6.98630137 C21.4675536,6.98630137 19.5517241,9.89808608 19.5517241,14.443311 L19.5517241,19.5921986 C19.5517241,24.1374235 21.4675536,27.0136986 26.0860711,27.0136986 Z" id="Shape"></path>
                <path d="M52.137931,26.5479452 L52.137931,13.7414014 C52.137931,10.0823889 51.1088929,6.98630137 46.7869328,6.98630137 C43.7341198,6.98630137 41.5388385,8.95653888 40.6470054,9.90647482 L40.4068966,7.30294668 L39.1034483,7.30294668 L39.1034483,26.5479452 L40.7842105,26.5479452 L40.7842105,11.2434217 C41.8818512,10.1879373 43.8713249,8.67507638 46.2038113,8.67507638 C49.1880218,8.67507638 50.4571688,10.2583029 50.4571688,13.4599389 L50.4571688,26.5479452 L52.137931,26.5479452 Z" id="Path"></path>
                <path d="M64.0771001,27.0136986 C68.5319025,27.0136986 70.2931034,24.7410862 70.2931034,21.3321675 C70.2931034,14.3722918 60.243898,16.9644904 60.243898,11.9221315 C60.243898,9.89808608 61.3834986,8.51321286 64.3879002,8.51321286 C65.4008786,8.51321286 66.8397682,8.51321286 68.7045692,8.51321286 L69.5082649,6.98630137 C67.6141559,6.98630137 65.8958566,6.98630137 64.3533669,6.98630137 C60.7964316,6.98630137 58.6208304,8.69076071 58.6208304,11.9931507 C58.6208304,18.5979306 68.7045692,15.6151268 68.7045692,21.5452249 C68.7045692,23.8178374 67.4959019,25.4867871 64.0425667,25.4867871 C62.8454105,25.4867871 61.147,25.4867871 58.9473353,25.4867871 L58.1896552,27.0136986 C60.5260842,27.0136986 62.4885659,27.0136986 64.0771001,27.0136986 Z" id="Path"></path>
                <path d="M75.8793103,7.45205479 L75.8793103,20.2585986 C75.8793103,23.9176111 76.9083485,27.0136986 81.2303085,27.0136986 C84.2831216,27.0136986 86.4784029,25.0434611 87.3702359,24.0935252 L87.6103448,26.6970533 L88.9137931,26.6970533 L88.9137931,7.45205479 L87.2330309,7.45205479 L87.2330309,22.7565783 C86.1353902,23.8120627 84.1459165,25.3249236 81.8134301,25.3249236 C78.8292196,25.3249236 77.5600726,23.7416971 77.5600726,20.5400611 L77.5600726,7.45205479 L75.8793103,7.45205479 Z" id="Path"></path>
                <polygon id="Path" points="96.362069 26.5479452 98.2241379 26.5479452 98.2241379 0 96.362069 0"></polygon>
                <path d="M111.824672,24.9525659 C109.41185,24.9525659 108.782419,23.818074 108.782419,21.3363729 L108.782419,8.57333879 L113.957746,8.57333879 L113.957746,7.04886526 L108.782419,7.04886526 L108.782419,2.79452055 L107.068966,3.04269066 L107.068966,7.04886526 L107.068966,7.71840268 L107.068966,8.27292325 L107.068966,8.57333879 L107.068966,20.769127 C107.068966,24.7398487 108.222924,26.5479452 111.64983,26.5479452 C112.559009,26.5479452 113.677999,26.335228 114.517241,25.9452464 L114.09762,24.5980372 C113.293346,24.8107544 112.454104,24.9525659 111.824672,24.9525659 Z" id="Path"></path>
                <path d="M120.38558,26.5479452 L122.113636,26.5479452 L122.113636,7.19408915 L120.38558,7.19408915 L120.38558,26.5479452 Z M120.103448,3.40823431 L122.431034,3.40823431 L122.431034,0.931506849 L120.103448,0.931506849 L120.103448,3.40823431 Z" id="Shape"></path>
                <path d="M142.448276,26.5479452 L142.448276,13.7414014 C142.448276,10.0823889 141.419238,6.98630137 137.097278,6.98630137 C134.044465,6.98630137 131.849183,8.95653888 130.95735,9.90647482 L130.717241,7.30294668 L129.413793,7.30294668 L129.413793,26.5479452 L131.094555,26.5479452 L131.094555,11.2434217 C132.192196,10.1879373 134.18167,8.67507638 136.514156,8.67507638 C139.498367,8.67507638 140.767514,10.2583029 140.767514,13.4599389 L140.767514,26.5479452 L142.448276,26.5479452 Z" id="Path"></path>
                <path d="M160.392072,9.5607139 C159.468368,8.46747022 157.58675,6.98630137 154.952484,6.98630137 C150.915558,6.98630137 148.965517,9.63124575 148.965517,14.1452842 L148.965517,19.7173003 C148.965517,24.2313387 150.915558,26.8762831 154.952484,26.8762831 C157.552539,26.8762831 159.399946,25.4303802 160.323649,24.3018706 L160.323649,27.2289424 C160.289438,30.685003 158.68151,32.4130334 155.636709,32.4130334 C153.310345,32.4130334 152.112951,31.8487786 150.539234,30.9671304 L149.85501,32.2014378 C150.915558,33.0125541 153.105077,34 155.636709,34 C160.871029,34 162,30.5792053 162,26.3120283 L162,7.3036947 L160.699973,7.3036947 L160.392072,9.5607139 Z M155.397231,25.2893165 C151.941895,25.2893165 150.641868,23.2791588 150.641868,19.5409707 L150.641868,14.3216138 C150.641868,10.5481598 151.941895,8.573268 155.397231,8.573268 C157.58675,8.573268 159.228889,9.77230945 160.323649,11.0771487 L160.323649,22.7854358 C159.228889,24.0550091 157.58675,25.2893165 155.397231,25.2893165 Z" id="Shape"></path>
            </g>
        </g>
    </g>
</svg>