<?xml version="1.0" encoding="UTF-8"?>
<svg width="66px" height="34px" viewBox="0 0 66 34" version="1.1" xmlns="http://www.w3.org/2000/svg" xmlns:xlink="http://www.w3.org/1999/xlink">
    <g id="Page-1" stroke="none" stroke-width="1" fill="none" fill-rule="evenodd">
        <g id="Group-3" fill="#000000">
            <path d="M22.8498391,12.6071206 C21.5105511,10.3981902 19.1906887,8.925 16.4631915,8.925 C12.1443159,8.925 8.64317551,12.5403006 8.64317551,17 C8.64317551,21.4596994 12.1443159,25.075 16.4631915,25.075 C18.0025978,25.075 19.9532609,25.075 22.3151808,25.075 L27.8949923,34 C22.8541186,34 19.0435184,34 16.4631915,34 C7.37082189,34 0,26.3888406 0,17 C0,7.61115925 7.37082189,0 16.4631915,0 C25.555561,0 29.6187926,5.72089844 35.2461815,15.4401172 C35.2461815,15.4401172 39.1641211,21.6267448 47,34 L35.99217,34 L22.8449291,12.5863086 L22.8498391,12.6071206 Z" id="Combined-Shape" fill-rule="nonzero"></path>
            <polygon id="Rectangle" points="33 -9.7317987e-16 44.9687314 -1.41553436e-15 66 34 54.8048306 34"></polygon>
        </g>
    </g>
</svg>