<svg xmlns="http://www.w3.org/2000/svg" width="210" height="204" viewBox="0 0 210 204" version="1.1">
    <path d="M 161.630 4.250 C 161.299 5.488, 161.027 8.750, 161.027 11.500 C 161.027 17.747, 161.867 21, 163.479 21 C 164.982 21, 166.323 9.865, 165.385 5.175 C 164.650 1.499, 162.509 0.971, 161.630 4.250 M 81 22.609 C 66.516 24.332, 49.608 32.816, 37.726 44.324 C 21.691 59.852, 13.055 73.325, 8.600 89.758 C 4.082 106.424, 3.047 118.264, 5.129 129.440 C 8.186 145.847, 11.501 154.745, 18.581 165.545 C 29.489 182.187, 44.870 192.753, 65.901 198.054 C 76.429 200.707, 94.656 200.686, 105.286 198.007 C 140.720 189.078, 169.273 151.786, 169.273 114.435 C 169.273 105.609, 167.453 96, 165.782 96 C 165.352 96, 165 101.063, 165 107.250 C 165 124.200, 161.506 139.456, 154.818 151.705 C 139.318 180.096, 111.852 194.912, 80.250 191.928 C 49.079 188.985, 25.122 169.985, 15.590 140.646 C 14.313 136.716, 12.705 129, 12.015 123.500 C 10.929 114.836, 10.984 112.107, 12.429 103.073 C 15.929 81.201, 24.872 63.172, 39.143 49.217 C 55.461 33.260, 72.481 26.222, 92.279 27.243 C 105.279 27.913, 115.510 31.667, 128.691 40.604 C 138.081 46.971, 140.498 47.122, 135.366 41.023 C 130.217 34.904, 117.891 27.811, 106.908 24.647 C 101.124 22.981, 87.130 21.880, 81 22.609 M 190.482 33.642 C 184.964 37.304, 182 40.111, 182 41.674 C 182 43.201, 185.584 43.482, 186.483 42.027 C 186.814 41.491, 188.753 40.287, 190.792 39.349 C 196.319 36.809, 200 34.043, 200 32.432 C 200 30.093, 194.843 30.749, 190.482 33.642 M 150.841 42.250 C 145.429 45.878, 144.175 47.305, 142.281 52 C 140.845 55.558, 140.051 59.677, 140.031 63.666 C 139.994 71.080, 142.887 68.436, 108.273 92.687 L 103.725 95.873 99.970 92.855 C 94.123 88.157, 85.872 87.107, 79.500 90.250 C 72.882 93.514, 66 104.531, 66 111.859 C 66 121.529, 73.448 131.062, 82.604 133.111 C 92.681 135.366, 102.645 130.541, 106.987 121.304 C 109.461 116.040, 109.988 106.715, 108.019 103.035 C 107.369 101.822, 106.987 100.701, 107.169 100.544 C 107.351 100.388, 115.583 94.764, 125.462 88.047 L 143.425 75.835 150.645 77.978 C 157.335 79.964, 158.086 80.007, 160.883 78.561 C 162.543 77.702, 164.572 77, 165.393 77 C 166.858 77, 179 66.411, 179 65.133 C 179 63.777, 174.578 61.813, 167.663 60.098 L 160.500 58.322 160.837 48.161 C 161.156 38.559, 161.065 38, 159.178 38 C 158.080 38, 154.328 39.913, 150.841 42.250 M 80 42.607 C 63.684 45.609, 45.759 58.757, 36.412 74.579 C 24.664 94.466, 22.096 115.386, 28.809 136.500 C 34.079 153.072, 48.829 168.265, 65.255 174.040 C 102.325 187.071, 139.770 166.446, 149.503 127.634 C 151.632 119.145, 151.224 103.318, 148.731 97.678 C 146.201 91.955, 145.258 93.937, 146.344 102.693 C 147.885 115.116, 144.926 131.337, 139.174 142 C 128.440 161.902, 109.630 173.301, 87.500 173.318 C 71.620 173.330, 57.506 167.553, 46.478 156.526 C 26.474 136.524, 23.818 105.113, 39.801 77.559 C 45.164 68.314, 57.012 57.124, 66.021 52.795 C 75.605 48.189, 80.181 47, 88.317 47 C 100.149 47, 111.249 51.157, 122.062 59.638 C 128.752 64.884, 130.723 65.299, 128.495 60.991 C 126.081 56.323, 116.332 49.297, 107.500 45.861 C 101.250 43.430, 97.641 42.683, 91 42.448 C 86.325 42.283, 81.375 42.354, 80 42.607 M 77.500 67.401 C 62.643 73.157, 50.746 87.152, 47.074 103.193 C 42.845 121.669, 51.735 142.462, 67.160 150.168 C 75.342 154.257, 78.564 155, 88.102 155 C 96.863 155, 98.642 154.591, 106.759 150.712 C 119.846 144.457, 130 127.962, 130 112.957 C 130 107.373, 128.041 100.761, 126.015 99.509 C 124.845 98.786, 124.799 99.176, 124.992 108.266 C 125.443 129.557, 115.816 143.904, 97.310 149.519 C 90.580 151.561, 83.410 151.355, 75.944 148.904 C 62.751 144.572, 54.541 135.312, 51.407 121.227 C 49.946 114.659, 49.885 112.699, 50.965 107.053 C 54.128 90.512, 65.099 76.547, 78.346 72.198 C 82.029 70.989, 86.495 70.005, 88.271 70.011 C 92.847 70.026, 100.474 72.512, 106.666 76.007 C 112.968 79.563, 112.960 79.562, 112.277 76.952 C 111.597 74.349, 106.860 70.726, 100.666 68.071 C 95.200 65.728, 82.748 65.368, 77.500 67.401 M 187.302 67.656 C 185.961 71.151, 198.041 78.349, 202.425 76.667 C 205.750 75.391, 203.784 73.054, 196.462 69.578 C 192.316 67.610, 188.702 66, 188.430 66 C 188.159 66, 187.651 66.745, 187.302 67.656 M 81.441 94.468 C 79.636 95.833, 79.802 95.939, 83.800 95.968 C 88.257 96.001, 93.534 98.103, 94.204 100.112 C 94.790 101.871, 99.173 100.128, 98.807 98.281 C 97.975 94.087, 85.551 91.359, 81.441 94.468 M 98.702 106.789 C 97.216 108.340, 95.990 110.260, 95.978 111.055 C 95.948 113.021, 92.942 116.542, 90.500 117.471 C 89.182 117.973, 88.938 118.396, 89.784 118.711 C 90.490 118.974, 91.620 118.730, 92.296 118.170 C 92.971 117.609, 94.852 117.004, 96.476 116.825 C 101.029 116.324, 100.913 119.322, 96.198 124.037 C 93.770 126.465, 92.816 128, 93.735 128 C 96.310 128, 102.719 120.671, 104.061 116.192 C 105.405 111.706, 104.494 104.976, 102.452 104.310 C 101.876 104.122, 100.189 105.237, 98.702 106.789 M 83.133 117.561 C 84.030 118.458, 85.604 119.019, 86.632 118.808 C 88.017 118.523, 87.595 118.101, 85.001 117.177 C 81.766 116.024, 81.625 116.053, 83.133 117.561"
          stroke="none" fill="#000" fill-rule="evenodd"/>
</svg>